HIERARCHY
ROOT Hips
{
	OFFSET -0.001795 -0.223333 0.028219
	CHANNELS 6 Xposition Yposition Zposition Zrotation Yrotation Xrotation 
	JOINT LeftUpLeg
	{
		OFFSET 0.069520 -0.091406 -0.006815
		CHANNELS 3 Zrotation Yrotation Xrotation
		JOINT LeftLeg
		{
			OFFSET 0.034277 -0.375199 -0.004496
			CHANNELS 3 Zrotation Yrotation Xrotation
			JOINT LeftFoot
			{
				OFFSET -0.013596 -0.397961 -0.043693
				CHANNELS 3 Zrotation Yrotation Xrotation
				JOINT LeftToe
				{
					OFFSET 0.026358 -0.055791 0.119288
					CHANNELS 3 Zrotation Yrotation Xrotation
					End Site
					{
						OFFSET 0.000000 0.000000 0.000000
					}
				}
			}
		}
	}
	JOINT RightUpLeg
	{
		OFFSET -0.067670 -0.090522 -0.004320
		CHANNELS 3 Zrotation Yrotation Xrotation
		JOINT RightLeg
		{
			OFFSET -0.038290 -0.382569 -0.008850
			CHANNELS 3 Zrotation Yrotation Xrotation
			JOINT RightFoot
			{
				OFFSET 0.015774 -0.398415 -0.042312
				CHANNELS 3 Zrotation Yrotation Xrotation
				JOINT RightToe
				{
					OFFSET -0.025372 -0.048144 0.123348
					CHANNELS 3 Zrotation Yrotation Xrotation
					End Site
					{
						OFFSET 0.000000 0.000000 0.000000
					}
				}
			}
		}
	}
	JOINT Spine
	{
		OFFSET -0.002533 0.108963 -0.026696
		CHANNELS 3 Zrotation Yrotation Xrotation
		JOINT Spine1
		{
			OFFSET 0.005487 0.135180 0.001092
			CHANNELS 3 Zrotation Yrotation Xrotation
			JOINT Spine2
			{
				OFFSET 0.001457 0.052922 0.025425
				CHANNELS 3 Zrotation Yrotation Xrotation
				JOINT Neck
				{
					OFFSET -0.002778 0.213870 -0.042857
					CHANNELS 3 Zrotation Yrotation Xrotation
					JOINT Head
					{
						OFFSET 0.005152 0.064970 0.051349
						CHANNELS 3 Zrotation Yrotation Xrotation
						End Site
						{
							OFFSET 0.000000 0.000000 0.000000
						}
					}
				}
				JOINT LeftShoulder
				{
					OFFSET 0.078845 0.121749 -0.034090
					CHANNELS 3 Zrotation Yrotation Xrotation
					JOINT LeftArm
					{
						OFFSET 0.090977 0.030469 -0.008868
						CHANNELS 3 Zrotation Yrotation Xrotation
						JOINT LeftForeArm
						{
							OFFSET 0.259612 -0.012772 -0.027456
							CHANNELS 3 Zrotation Yrotation Xrotation
							JOINT LeftHand
							{
								OFFSET 0.249234 0.008986 -0.001171
								CHANNELS 3 Zrotation Yrotation Xrotation
								End Site
								{
									OFFSET 0.000000 0.000000 0.000000
								}
							}
						}
					}
				}
				JOINT RightShoulder
				{
					OFFSET -0.081759 0.118833 -0.038615
					CHANNELS 3 Zrotation Yrotation Xrotation
					JOINT RightArm
					{
						OFFSET -0.096012 0.032551 -0.009143
						CHANNELS 3 Zrotation Yrotation Xrotation
						JOINT RightForeArm
						{
							OFFSET -0.253742 -0.013329 -0.021401
							CHANNELS 3 Zrotation Yrotation Xrotation
							JOINT RightHand
							{
								OFFSET -0.255298 0.007772 -0.005559
								CHANNELS 3 Zrotation Yrotation Xrotation
								End Site
								{
									OFFSET 0.000000 0.000000 0.000000
								}
							}
						}
					}
				}
			}
		}
	}
}
MOTION
Frames: 18
Frame Time: 0.050000
0.000000 0.943410 0.000000 -1.175117 -11.666033 1.720767 3.933111 0.106803 1.082303 -1.493711 0.230877 -1.760354 3.397521 8.219561 6.193344 0.000000 0.000000 0.000000 -5.242482 0.304297 -0.392551 3.749229 -0.292265 -0.735894 -1.887835 -7.807909 6.494245 0.000000 0.000000 0.000000 7.825996 -0.443866 3.598534 -5.299792 1.742761 -19.168100 -0.827155 10.812232 24.427991 8.305525 -1.952646 -29.597595 0.000000 0.000000 0.000000 -31.199123 -4.816349 -0.414232 -40.257052 -6.028091 -4.097535 2.270292 -16.377008 0.344252 0.000000 0.000000 0.000000 34.198474 -4.959816 -4.720753 43.496309 2.110939 -5.640017 -0.404441 22.928577 1.026052 0.000000 0.000000 0.000000 
-0.000098 0.941362 0.000924 -1.569063 -13.071040 2.027181 4.850983 0.167046 1.758592 -2.053110 0.316060 -2.605107 3.923716 9.121240 5.907536 0.000000 0.000000 0.000000 -4.714659 0.316430 -0.904139 3.017076 -0.225389 -0.266994 -1.339775 -6.689833 6.283366 0.000000 0.000000 0.000000 8.656607 -0.438990 3.361488 -5.979981 1.910926 -19.234266 -0.940703 12.849406 24.314881 9.217472 -2.068823 -30.751683 0.000000 0.000000 0.000000 -30.926513 -4.391578 -1.199143 -41.028603 -6.049547 -4.005575 4.222942 -16.248491 0.056553 0.000000 0.000000 0.000000 35.033229 -6.279865 -5.228691 44.106631 1.752200 -6.022884 -0.639689 24.647262 1.162287 0.000000 0.000000 0.000000 
-0.000254 0.940612 0.001346 -1.531217 -11.808269 2.268700 4.662604 0.093456 0.867859 -1.654797 0.240319 -1.166326 3.993627 9.212056 5.011459 0.000000 0.000000 0.000000 -4.641532 0.330785 -1.443170 2.941728 -0.223242 0.119000 -1.826861 -7.720876 6.522118 0.000000 0.000000 0.000000 8.956521 -0.413624 2.944637 -6.483054 2.068784 -20.082845 -0.320116 11.500420 25.660402 9.014591 -2.043035 -31.220874 0.000000 0.000000 0.000000 -29.729738 -4.640564 -0.552161 -42.059464 -6.654985 -4.131049 5.865568 -15.461591 -0.133044 0.000000 0.000000 0.000000 33.448484 -5.342882 -4.570058 45.316941 2.045394 -6.064041 -1.635869 24.365459 0.948550 0.000000 0.000000 0.000000 
-0.000399 0.939458 0.001566 -1.729050 -12.615662 2.375992 5.209312 0.121111 1.110441 -2.112662 0.304323 -1.413446 4.278272 9.751332 5.218273 0.000000 0.000000 0.000000 -4.860344 0.356078 -1.554144 3.453686 -0.255043 0.012178 -1.829754 -7.953190 6.939614 0.000000 0.000000 0.000000 9.145074 -0.441566 3.175752 -6.723622 2.102949 -20.894370 0.176100 12.416975 26.186118 9.278779 -1.950066 -32.436919 0.000000 0.000000 0.000000 -29.943353 -4.597291 -0.747869 -41.579658 -6.524794 -4.099985 6.708957 -15.862182 -0.256572 0.000000 0.000000 0.000000 33.964703 -5.831771 -4.777404 44.619710 1.736350 -6.204729 -1.684004 25.870601 1.046617 0.000000 0.000000 0.000000 
-0.000633 0.939278 0.001612 -1.668975 -12.714833 2.133768 5.156571 0.133526 1.249182 -1.963626 0.283131 -1.175741 4.386396 9.909777 4.582312 0.000000 0.000000 0.000000 -4.917705 0.331826 -1.036058 3.369882 -0.253690 -0.423189 -1.572017 -7.468551 7.010268 0.000000 0.000000 0.000000 8.781147 -0.461730 3.495606 -6.214885 1.961733 -20.675296 0.051810 12.514296 25.650732 9.441192 -2.030476 -32.273045 0.000000 0.000000 0.000000 -30.013363 -4.270598 -1.032411 -41.219914 -5.827395 -4.223741 7.574220 -17.032871 -0.409603 0.000000 0.000000 0.000000 33.716448 -5.351043 -4.399379 44.342052 1.580561 -6.170364 -2.317319 26.088086 0.910619 0.000000 0.000000 0.000000 
-0.000777 0.939146 0.001522 -1.751126 -13.077194 2.095832 5.332425 0.154472 1.501963 -1.836541 0.276490 -1.747860 4.452404 10.062108 5.032913 0.000000 0.000000 0.000000 -5.133669 0.350290 -1.100568 3.622803 -0.264343 -0.109157 -1.570945 -7.284181 6.560946 0.000000 0.000000 0.000000 8.395693 -0.489519 3.869533 -5.863981 1.851045 -20.960134 0.290117 13.111540 25.456792 9.637685 -2.020132 -32.559153 0.000000 0.000000 0.000000 -29.842723 -3.527808 -1.692811 -41.707129 -5.501277 -4.307082 8.140879 -17.983719 -0.532026 0.000000 0.000000 0.000000 33.988754 -5.742972 -4.563285 43.876566 1.283388 -6.243928 -2.947931 27.364319 0.848652 0.000000 0.000000 0.000000 
-0.000918 0.938818 0.001372 -1.809993 -13.212320 2.198646 5.470035 0.153606 1.457993 -1.917420 0.293700 -2.182757 4.473284 10.102187 5.107121 0.000000 0.000000 0.000000 -5.041786 0.348489 -1.121810 3.543250 -0.258140 -0.148294 -1.364655 -6.750947 6.298663 0.000000 0.000000 0.000000 8.153534 -0.494173 3.956921 -5.678360 1.796297 -20.675866 0.058267 13.039498 24.693468 10.173815 -2.321606 -32.328760 0.000000 0.000000 0.000000 -29.122640 -2.627001 -2.177482 -42.097963 -5.078385 -4.454412 7.938731 -19.501407 -0.548998 0.000000 0.000000 0.000000 34.012489 -5.958792 -4.830479 43.978236 1.229410 -6.178983 -3.432536 27.878035 0.749665 0.000000 0.000000 0.000000 
-0.001047 0.938204 0.001380 -1.733184 -13.459053 2.541967 5.463377 0.152053 1.459751 -1.865983 0.298148 -2.758836 4.276114 9.731945 5.409311 0.000000 0.000000 0.000000 -5.179097 0.384960 -1.592553 3.691186 -0.260786 0.299469 -1.513443 -6.753959 5.626945 0.000000 0.000000 0.000000 7.732085 -0.414990 3.232105 -5.096420 1.625007 -20.451999 -0.419570 13.149483 24.359092 11.056504 -2.904451 -31.513222 0.000000 0.000000 0.000000 -28.555754 -2.365171 -2.253328 -42.002486 -4.348522 -4.689106 8.964285 -22.008464 -0.820634 0.000000 0.000000 0.000000 34.098237 -6.038326 -4.937515 43.331563 0.679654 -6.254053 -3.871992 30.842207 0.739465 0.000000 0.000000 0.000000 
-0.001070 0.938141 0.001508 -1.977972 -13.644249 2.784872 5.607027 0.158389 1.563611 -1.770549 0.298213 -3.297076 3.976449 9.162806 5.601102 0.000000 0.000000 0.000000 -4.953108 0.392846 -1.925576 4.021721 -0.276818 0.915012 -1.848605 -7.451945 5.614553 0.000000 0.000000 0.000000 7.839059 -0.372218 2.751732 -5.122557 1.628611 -20.049145 -0.538319 12.716034 23.607200 10.586796 -2.814099 -30.893651 0.000000 0.000000 0.000000 -27.495734 -0.524744 -3.107523 -41.909107 -4.215875 -4.751048 8.554634 -27.783712 -0.932934 0.000000 0.000000 0.000000 32.380854 -7.278186 -5.885408 42.622297 0.903850 -5.934230 -3.354030 35.003073 0.992642 0.000000 0.000000 0.000000 
-0.001134 0.938327 0.001421 -1.878074 -13.783216 2.697038 5.492432 0.159588 1.536456 -1.997915 0.328576 -3.543478 3.457908 8.225105 6.252312 0.000000 0.000000 0.000000 -4.900604 0.380033 -1.724988 4.070798 -0.278884 0.949920 -1.974062 -7.686746 5.555830 0.000000 0.000000 0.000000 7.638107 -0.257599 1.747127 -4.549131 1.468223 -19.258223 -1.320339 12.980176 23.337689 11.185757 -3.345100 -29.385047 0.000000 0.000000 0.000000 -26.757470 -1.278109 -2.609679 -38.466741 -5.991571 -3.834656 14.847895 -37.854690 -3.535606 0.000000 0.000000 0.000000 31.043663 -7.324498 -5.623898 40.756524 2.357705 -5.294597 -6.621948 41.833278 0.125637 0.000000 0.000000 0.000000 
-0.001312 0.938987 0.001021 -1.795772 -14.276410 2.525175 5.239625 0.188066 1.905592 -1.617196 0.299047 -4.001207 3.498993 8.273253 6.190959 0.000000 0.000000 0.000000 -5.409189 0.416428 -1.841806 4.437717 -0.296078 1.619213 -1.793063 -6.897980 4.650191 0.000000 0.000000 0.000000 8.073946 -0.148910 0.795811 -4.675633 1.496321 -18.945648 -2.076260 13.144835 23.091861 11.172518 -3.553694 -28.209902 0.000000 0.000000 0.000000 -23.625910 -2.227472 -1.574821 -34.382932 -9.934077 -2.522506 27.972523 -50.338191 -11.274698 0.000000 0.000000 0.000000 28.011075 -7.569096 -5.416511 38.105065 6.217330 -3.901465 -12.642294 52.144190 -2.591965 0.000000 0.000000 0.000000 
-0.001647 0.939991 0.000255 -1.936040 -15.049461 2.681018 4.897752 0.227399 2.428781 -1.001154 0.257712 -4.719063 2.997573 7.386403 7.222937 0.000000 0.000000 0.000000 -4.603982 0.404222 -2.290810 3.755909 -0.234400 1.667355 -1.282791 -5.759572 4.464252 0.000000 0.000000 0.000000 8.367173 0.030058 -0.702080 -4.811538 1.520269 -18.735023 -2.235173 13.516036 22.636186 11.456208 -4.087404 -26.147171 0.000000 0.000000 0.000000 -19.627016 -4.065150 -0.074134 -26.686376 -15.796325 -1.063445 55.536601 -56.539114 -29.368064 0.000000 0.000000 0.000000 23.664782 -6.359339 -4.207948 33.174259 10.979561 -2.287180 -28.687773 63.087345 -13.224941 0.000000 0.000000 0.000000 
-0.002366 0.940883 -0.000420 -1.622479 -15.185488 2.375794 4.737835 0.237198 2.503005 -0.968057 0.238100 -4.185732 3.074671 7.464964 6.626457 0.000000 0.000000 0.000000 -4.414090 0.361861 -1.722475 2.988654 -0.186405 1.059029 -1.094057 -5.745790 5.176530 0.000000 0.000000 0.000000 8.301903 0.122467 -1.400423 -4.561334 1.440698 -19.821839 -2.532330 13.887959 22.951351 10.691227 -3.911466 -24.493639 0.000000 0.000000 0.000000 -13.173468 -6.699389 1.693498 -17.682143 -22.243781 -0.481409 79.597244 -49.415455 -40.313253 0.000000 0.000000 0.000000 17.479684 -4.901649 -2.755335 25.507665 18.740473 -0.655831 -64.426303 67.556333 -40.013068 0.000000 0.000000 0.000000 
-0.003190 0.942094 -0.000909 -1.902904 -15.861711 2.837135 5.108397 0.250909 2.642171 -0.838852 0.239215 -4.620936 2.750708 6.831300 6.854751 0.000000 0.000000 0.000000 -3.716360 0.377588 -2.493082 2.675757 -0.149509 1.430076 -0.901107 -5.019982 4.521876 0.000000 0.000000 0.000000 8.146497 0.142657 -1.637688 -4.303414 1.349771 -20.717388 -2.379585 13.787469 22.591299 10.815801 -4.170507 -23.890140 0.000000 0.000000 0.000000 -5.405098 -8.275566 2.732840 -7.923136 -29.150038 -1.147185 89.710022 -38.452762 -37.333215 0.000000 0.000000 0.000000 9.658285 -2.267990 -1.130347 16.168409 25.659435 -0.213544 -89.595351 59.010133 -52.881381 0.000000 0.000000 0.000000 
-0.003962 0.944157 -0.000951 -1.868526 -15.828313 2.542713 5.316695 0.240220 2.400715 -0.873369 0.220384 -3.909558 2.797237 6.917449 6.789331 0.000000 0.000000 0.000000 -3.345151 0.342582 -2.254792 2.201322 -0.117983 1.265539 -0.727133 -5.227521 5.554380 0.000000 0.000000 0.000000 7.341698 0.060581 -1.023355 -3.599398 1.173538 -22.289318 -2.005181 14.541403 22.738888 11.893758 -4.800649 -23.453941 0.000000 0.000000 0.000000 2.960851 -9.775091 3.298641 4.296181 -34.704079 -3.625701 86.046798 -28.843526 -27.444177 0.000000 0.000000 0.000000 2.887716 -0.154492 -0.079622 6.861989 29.639198 -1.023218 -95.852857 49.346705 -48.203774 0.000000 0.000000 0.000000 
-0.004320 0.946310 -0.000837 -1.885484 -15.523935 2.372264 5.385531 0.258120 2.714382 -0.623188 0.212858 -4.481855 2.758215 7.045919 8.386754 0.000000 0.000000 0.000000 -3.252281 0.309486 -1.854422 1.506560 -0.089210 0.504989 -0.563134 -5.256410 6.258300 0.000000 0.000000 0.000000 7.241189 0.061609 -1.014668 -3.703707 1.210329 -22.497428 -1.855985 13.942594 22.196251 11.738499 -4.508833 -24.661840 0.000000 0.000000 0.000000 11.044535 -10.553106 3.392699 12.032720 -37.257688 -5.763949 83.060878 -23.686841 -21.833460 0.000000 0.000000 0.000000 -5.785596 1.687924 0.474539 -0.849953 31.401437 -2.094502 -94.043103 42.012767 -39.724323 0.000000 0.000000 0.000000 
-0.004419 0.947579 -0.000194 -1.921244 -15.469576 2.204352 5.246170 0.239104 2.394285 -0.212570 0.142782 -3.695108 3.237932 7.904951 8.199115 0.000000 0.000000 0.000000 -2.515894 0.270382 -1.826112 0.371296 0.004975 0.727754 -1.115270 -6.402102 6.281454 0.000000 0.000000 0.000000 6.841390 -0.041666 -0.077173 -3.340784 1.158474 -24.407860 -1.270170 14.426613 22.719438 13.137219 -5.302662 -24.621392 0.000000 0.000000 0.000000 17.933785 -10.211287 3.198255 19.203171 -38.577171 -8.024628 77.991071 -20.780363 -18.080525 0.000000 0.000000 0.000000 -13.198107 1.098618 0.129295 -8.118514 32.468520 -3.274342 -87.193196 36.746161 -30.623184 0.000000 0.000000 0.000000 
-0.004406 0.949218 0.001023 -2.025385 -15.454171 2.348907 5.331216 0.213052 1.988728 0.320366 0.079203 -3.509008 2.945765 7.439244 8.942486 0.000000 0.000000 0.000000 -2.507776 0.252051 -1.566955 0.479408 -0.024033 0.204181 -1.471014 -7.406051 6.878456 0.000000 0.000000 0.000000 7.012888 -0.032229 -0.177232 -3.653226 1.246138 -24.694954 -1.161707 14.058514 22.742726 13.187730 -5.281606 -25.092197 0.000000 0.000000 0.000000 23.249545 -9.309302 2.849856 24.474429 -38.986160 -9.537234 73.036576 -16.245566 -13.286566 0.000000 0.000000 0.000000 -19.203928 0.908484 0.067595 -12.700042 31.525212 -3.858210 -80.391587 32.641694 -24.052954 0.000000 0.000000 0.000000 
